<?xml version="1.0" encoding="utf-8"?>
<!-- Generator: Adobe Illustrator 15.1.0, SVG Export Plug-In . SVG Version: 6.00 Build 0)  -->
<!DOCTYPE svg PUBLIC "-//W3C//DTD SVG 1.1//EN" "http://www.w3.org/Graphics/SVG/1.1/DTD/svg11.dtd">
<svg version="1.1" id="Layer_1" xmlns="http://www.w3.org/2000/svg" xmlns:xlink="http://www.w3.org/1999/xlink" x="0px" y="0px"
	 width="200px" height="200px" viewBox="0 0 200 200" enable-background="new 0 0 200 200" xml:space="preserve">
<g id="outline" inkscape:version="0.48.1 r9760" sodipodi:docname="twitter_bootstrap_logo.svg" xmlns:sodipodi="http://sodipodi.sourceforge.net/DTD/sodipodi-0.dtd" xmlns:svg="http://www.w3.org/2000/svg" xmlns:inkscape="http://www.inkscape.org/namespaces/inkscape" xmlns:cc="http://creativecommons.org/ns#" xmlns:dc="http://purl.org/dc/elements/1.1/" xmlns:rdf="http://www.w3.org/1999/02/22-rdf-syntax-ns#">
	<g id="bg_1_">
		<path fill="#FFFFFF" d="M166.666,1.961c8.334,0,16.21,3.268,22.158,9.215c5.947,5.948,9.215,13.824,9.215,22.158v133.332
			c0,8.334-3.268,16.21-9.215,22.158c-5.948,5.947-13.824,9.215-22.158,9.215H33.333c-8.333,0-16.209-3.268-22.157-9.215
			C5.229,182.876,1.961,175,1.961,166.666V33.334c0-8.334,3.268-16.21,9.215-22.158C17.124,5.229,25,1.961,33.333,1.961H166.666
			 M166.666,0H33.333C15,0,0,15,0,33.334v133.332C0,185,15,200,33.333,200h133.333C185,200,200,185,200,166.666V33.334
			C200,15,185,0,166.666,0L166.666,0z"/>
	</g>
	<g id="B_2_" enable-background="new    ">
		<path fill="#FFFFFF" d="M54.346,43.464h56.7c10.458,0,18.856,2.386,25.163,7.189s9.478,12.026,9.478,21.732
			c0,5.882-1.438,10.915-4.313,15.099c-2.877,4.182-6.994,7.45-12.354,9.738v0.326c7.189,1.536,12.646,4.935,16.34,10.196
			c3.693,5.294,5.556,11.896,5.556,19.869c0,4.575-0.817,8.856-2.451,12.811c-1.634,3.987-4.183,7.419-7.68,10.294
			c-3.497,2.876-7.94,5.164-13.398,6.863s-11.929,2.549-19.444,2.549H54.346V43.464L54.346,43.464z M74.771,92.32h33.333
			c4.901,0,8.987-1.373,12.255-4.184s4.902-6.797,4.902-12.025c0-5.883-1.471-10.033-4.412-12.418
			c-2.941-2.387-7.189-3.596-12.745-3.596H74.771V92.32L74.771,92.32z M74.771,143.464h36.111c6.209,0,11.045-1.601,14.443-4.837
			c3.432-3.202,5.164-7.777,5.164-13.66c0-5.783-1.699-10.195-5.164-13.333c-3.463-3.138-8.234-4.64-14.443-4.64H74.771V143.464z"/>
	</g>
</g>
<g>
	<path fill="#FFFFFF" d="M169.127,58.156l-10.739-14.7h8.28l6.479,9.54l6.78-9.54h7.92l-10.561,14.34l11.881,16.68h-8.221
		l-7.859-11.46l-7.621,11.46h-8.039L169.127,58.156z"/>
</g>
</svg>
